<?xml version="1.0" encoding="UTF-8"?>
<svg version="1.1" xmlns="http://www.w3.org/2000/svg" width="512" height="512">
<path d="M0 0 C105.6 0 211.2 0 320 0 C320 68.64 320 137.28 320 208 C356.96 208 393.92 208 432 208 C432 250.24 432 292.48 432 336 C447.84 336 463.68 336 480 336 C480 383.52 480 431.04 480 480 C363.84 480 247.68 480 128 480 C128 458.88 128 437.76 128 416 C85.76 416 43.52 416 0 416 C0 278.72 0 141.44 0 0 Z " fill="#EAF6FD" transform="translate(16,16)"/>
<path d="M0 0 C52.8 0 105.6 0 160 0 C160 42.24 160 84.48 160 128 C175.84 128 191.68 128 208 128 C208 175.52 208 223.04 208 272 C91.84 272 -24.32 272 -144 272 C-144 224.48 -144 176.96 -144 128 C-96.48 128 -48.96 128 0 128 C0 85.76 0 43.52 0 0 Z " fill="#C18E5C" transform="translate(288,224)"/>
<path d="M0 0 C14.85 0 29.7 0 45 0 C45 68.64 45 137.28 45 208 C29.16 208 13.32 208 -3 208 C-3 221.2 -3 234.4 -3 248 C-53.16 248 -103.32 248 -155 248 C-155 242.72 -155 237.44 -155 232 C-153.79080902 232.02966354 -152.58161804 232.05932709 -151.33578491 232.08988953 C-139.89119488 232.35804622 -128.44895147 232.52436694 -117.00137901 232.59327984 C-111.11652218 232.63191853 -105.23654145 232.70529063 -99.35351562 232.8605957 C-93.66574829 233.00942611 -87.98392954 233.06367695 -82.29430008 233.05484962 C-80.13394519 233.06764264 -77.97350463 233.11343335 -75.81461716 233.194067 C-64.07387118 233.82726082 -64.07387118 233.82726082 -53.72595215 229.14753914 C-48.92671576 223.98366075 -45.42926171 218.12164089 -42 212 C-41.19718362 210.69280521 -40.38643556 209.39042273 -39.56509399 208.0947876 C-37.69947806 205.12872422 -35.96097226 202.11984448 -34.25 199.0625 C-33.6621875 198.03705078 -33.074375 197.01160156 -32.46875 195.95507812 C-30.21432609 192.00725093 -28.03366263 188.06732526 -26 184 C-68.57 184 -111.14 184 -155 184 C-155 178.72 -155 173.44 -155 168 C-109.79 167.67 -64.58 167.34 -18 167 C-16.02 162.05 -14.04 157.1 -12 152 C-59.19 152 -106.38 152 -155 152 C-155 146.72 -155 141.44 -155 136 C-105.83 136 -56.66 136 -6 136 C-5.67 134.02 -5.34 132.04 -5 130 C-4.64685571 128.17925375 -4.28470891 126.36023292 -3.9140625 124.54296875 C-3.70523438 123.51107422 -3.49640625 122.47917969 -3.28125 121.41601562 C-2.85244751 119.30646054 -2.42279658 117.19707769 -1.9921875 115.08789062 C-0.17107336 106.07670695 1.40056972 97.06343824 3 88 C-49.14 88 -101.28 88 -155 88 C-155 82.72 -155 77.44 -155 72 C-102.2 72 -49.4 72 5 72 C5 66.72 5 61.44 5 56 C-47.8 56 -100.6 56 -155 56 C-155 50.72 -155 45.44 -155 40 C-102.53 40 -50.06 40 4 40 C3.01 30.43 2.02 20.86 1 11 C0.67 7.37 0.34 3.74 0 0 Z " fill="#C7E2FB" transform="translate(291,16)"/>
<path d="M0 0 C50.16 0 100.32 0 152 0 C152 23.76 152 47.52 152 72 C104.48 72 56.96 72 8 72 C8 98.4 8 124.8 8 152 C-34.24 152 -76.48 152 -120 152 C-120 125.6 -120 99.2 -120 72 C-97.5 70.875 -97.5 70.875 -88 71 C-88 66.05 -88 61.1 -88 56 C-85.20354004 56.01740234 -85.20354004 56.01740234 -82.35058594 56.03515625 C-76.10388669 56.06445434 -69.85807137 56.05599422 -63.6114006 56.02334595 C-59.83378447 56.00492086 -56.05734919 56.00040028 -52.27978516 56.03076172 C-34.37035345 56.16355918 -19.21428473 55.53412101 -3 47 C-1.53406741 46.29187762 -0.06500283 45.59019985 1.40722656 44.89526367 C5.3328708 43.04174614 9.17154606 41.04557655 13 39 C13.65419922 38.65356445 14.30839844 38.30712891 14.98242188 37.95019531 C25.50591379 32.33937743 35.27065274 25.88230731 45 19 C45.99 18.34 46.98 17.68 48 17 C32.16 16.67 16.32 16.34 0 16 C0 10.72 0 5.44 0 0 Z " fill="#C7E2FB" transform="translate(136,280)"/>
<path d="M0 0 C52.47 0 104.94 0 159 0 C156.94714037 6.15857888 154.97131834 11.50595127 151.9375 17.125 C151.3504126 18.21905151 151.3504126 18.21905151 150.75146484 19.33520508 C125.27193039 65.96689368 83.6253926 99.69493702 32.80078125 114.9609375 C21.97100399 117.88165179 11.19892675 119 0 119 C0 79.73 0 40.46 0 0 Z " fill="#CCA47C" transform="translate(320,352)"/>
<path d="M0 0 C52.47 0 104.94 0 159 0 C156.94714037 6.15857888 154.97131834 11.50595127 151.9375 17.125 C151.3504126 18.21905151 151.3504126 18.21905151 150.75146484 19.33520508 C125.27193039 65.96689368 83.6253926 99.69493702 32.80078125 114.9609375 C21.97100399 117.88165179 11.19892675 119 0 119 C0 79.73 0 40.46 0 0 Z " fill="#CCA47C" transform="translate(144,352)"/>
<path d="M0 0 C50.82 0 101.64 0 154 0 C147.9478852 24.20845919 134.97191719 43.96934317 118 62 C117.45214844 62.60070312 116.90429688 63.20140625 116.33984375 63.8203125 C99.24632283 81.87980635 74.92644639 94.1876793 51 100 C49.865625 100.28617187 48.73125 100.57234375 47.5625 100.8671875 C36.60743841 103.52987608 26.3286576 104.16120618 15.0625 104.125 C13.83208984 104.12886719 12.60167969 104.13273437 11.33398438 104.13671875 C10.16287109 104.13542969 8.99175781 104.13414062 7.78515625 104.1328125 C6.19006226 104.13112061 6.19006226 104.13112061 4.56274414 104.12939453 C2 104 2 104 0 103 C0 69.01 0 35.02 0 0 Z " fill="#CCA47C" transform="translate(288,224)"/>
<path d="M0 0 C21.12 0 42.24 0 64 0 C64 21.12 64 42.24 64 64 C42.88 64 21.76 64 0 64 C0 42.88 0 21.76 0 0 Z " fill="#4472B0" transform="translate(48,336)"/>
<path d="M0 0 C21.12 0 42.24 0 64 0 C64 21.12 64 42.24 64 64 C42.88 64 21.76 64 0 64 C0 42.88 0 21.76 0 0 Z " fill="#4472B0" transform="translate(48,144)"/>
<path d="M0 0 C17.16 0 34.32 0 52 0 C45.25719566 7.86660506 45.25719566 7.86660506 42.18188477 10.85229492 C41.49840469 11.519561 40.81492462 12.18682709 40.11073303 12.87431335 C39.39485519 13.56934464 38.67897736 14.26437592 37.94140625 14.98046875 C36.40631686 16.48833779 34.87182858 17.99681901 33.33789062 19.50585938 C30.93815338 21.86212222 28.53489613 24.21428671 26.12133789 26.55639648 C23.77915861 28.83231223 21.45293075 31.1235374 19.12890625 33.41796875 C18.3988588 34.11907272 17.66881134 34.8201767 16.91664124 35.54252625 C15.92451881 36.52924065 15.92451881 36.52924065 14.91235352 37.53588867 C14.03015892 38.39690437 14.03015892 38.39690437 13.13014221 39.27531433 C11.77089437 40.95192014 11.77089437 40.95192014 12.22496033 43.0941925 C13.20467596 45.5032942 14.49187286 46.96068438 16.3125 48.8125 C16.90675781 49.43769531 17.50101563 50.06289063 18.11328125 50.70703125 C19.87866814 52.21503875 19.87866814 52.21503875 21.86677551 51.81166077 C24.57811581 50.78003538 25.98210624 49.37154121 28.01831055 47.30639648 C29.18422981 46.13529579 29.18422981 46.13529579 30.373703 44.9405365 C31.2029982 44.09262039 32.0322934 43.24470428 32.88671875 42.37109375 C33.74433304 41.50686295 34.60194733 40.64263214 35.48554993 39.75221252 C38.22669846 36.98762644 40.95749596 34.21308807 43.6875 31.4375 C46.42992104 28.66009482 49.17443718 25.88480566 51.92158508 23.11207581 C53.63192103 21.38467147 55.3391718 19.65420632 57.0431366 17.92051697 C57.81095963 17.14293533 58.57878265 16.3653537 59.36987305 15.56420898 C60.38769112 14.52948708 60.38769112 14.52948708 61.42607117 13.47386169 C63 12 63 12 64 12 C64 29.16 64 46.32 64 64 C42.88 64 21.76 64 0 64 C0 42.88 0 21.76 0 0 Z " fill="#4472B0" transform="translate(48,240)"/>
<path d="M0 0 C17.16 0 34.32 0 52 0 C45.25719566 7.86660506 45.25719566 7.86660506 42.18188477 10.85229492 C41.49840469 11.519561 40.81492462 12.18682709 40.11073303 12.87431335 C39.39485519 13.56934464 38.67897736 14.26437592 37.94140625 14.98046875 C36.40631686 16.48833779 34.87182858 17.99681901 33.33789062 19.50585938 C30.93815338 21.86212222 28.53489613 24.21428671 26.12133789 26.55639648 C23.77915861 28.83231223 21.45293075 31.1235374 19.12890625 33.41796875 C18.3988588 34.11907272 17.66881134 34.8201767 16.91664124 35.54252625 C15.92451881 36.52924065 15.92451881 36.52924065 14.91235352 37.53588867 C14.03015892 38.39690437 14.03015892 38.39690437 13.13014221 39.27531433 C11.77089437 40.95192014 11.77089437 40.95192014 12.22496033 43.0941925 C13.20467596 45.5032942 14.49187286 46.96068438 16.3125 48.8125 C16.90675781 49.43769531 17.50101563 50.06289062 18.11328125 50.70703125 C19.87866814 52.21503875 19.87866814 52.21503875 21.86677551 51.81166077 C24.57811581 50.78003538 25.98210624 49.37154121 28.01831055 47.30639648 C29.18422981 46.13529579 29.18422981 46.13529579 30.373703 44.9405365 C31.2029982 44.09262039 32.0322934 43.24470428 32.88671875 42.37109375 C33.74433304 41.50686295 34.60194733 40.64263214 35.48554993 39.75221252 C38.22669846 36.98762644 40.95749596 34.21308807 43.6875 31.4375 C46.42992104 28.66009482 49.17443718 25.88480566 51.92158508 23.11207581 C53.63192103 21.38467147 55.3391718 19.65420632 57.0431366 17.92051697 C57.81095963 17.14293533 58.57878265 16.3653537 59.36987305 15.56420898 C60.38769112 14.52948708 60.38769112 14.52948708 61.42607117 13.47386169 C63 12 63 12 64 12 C64 29.16 64 46.32 64 64 C42.88 64 21.76 64 0 64 C0 42.88 0 21.76 0 0 Z " fill="#4472B0" transform="translate(48,48)"/>
<path d="M0 0 C58.08 0 116.16 0 176 0 C176 5.28 176 10.56 176 16 C117.92 16 59.84 16 0 16 C0 10.72 0 5.44 0 0 Z " fill="#C1C8D1" transform="translate(136,184)"/>
<path d="M0 0 C58.08 0 116.16 0 176 0 C176 5.28 176 10.56 176 16 C117.92 16 59.84 16 0 16 C0 10.72 0 5.44 0 0 Z " fill="#C1C8D1" transform="translate(136,152)"/>
<path d="M0 0 C58.08 0 116.16 0 176 0 C176 5.28 176 10.56 176 16 C117.92 16 59.84 16 0 16 C0 10.72 0 5.44 0 0 Z " fill="#C1C8D1" transform="translate(136,88)"/>
<path d="M0 0 C58.08 0 116.16 0 176 0 C176 5.28 176 10.56 176 16 C117.92 16 59.84 16 0 16 C0 10.72 0 5.44 0 0 Z " fill="#C1C8D1" transform="translate(136,56)"/>
<path d="M0 0 C50.16 0 100.32 0 152 0 C152 5.28 152 10.56 152 16 C101.84 16 51.68 16 0 16 C0 10.72 0 5.44 0 0 Z " fill="#C1C8D1" transform="translate(136,280)"/>
<path d="M0 0 C50.16 0 100.32 0 152 0 C152 5.28 152 10.56 152 16 C101.84 16 51.68 16 0 16 C0 10.72 0 5.44 0 0 Z " fill="#C1C8D1" transform="translate(136,248)"/>
<path d="M0 0 C15.84 0 31.68 0 48 0 C48 15.84 48 31.68 48 48 C32.16 48 16.32 48 0 48 C0 32.16 0 16.32 0 0 Z " fill="#E1C9B1" transform="translate(384,352)"/>
<path d="M0 0 C15.84 0 31.68 0 48 0 C48 15.84 48 31.68 48 48 C32.16 48 16.32 48 0 48 C0 32.16 0 16.32 0 0 Z " fill="#E1C9B1" transform="translate(208,352)"/>
<path d="M0 0 C10.56 0 21.12 0 32 0 C32 15.84 32 31.68 32 48 C21.44 48 10.88 48 0 48 C0 32.16 0 16.32 0 0 Z " fill="#E1C9B1" transform="translate(352,224)"/>
<path d="M0 0 C3.41059403 1.60535287 5.61792484 3.40518901 8.25 6.125 C8.95640625 6.84945312 9.6628125 7.57390625 10.390625 8.3203125 C11.18726563 9.15175781 11.18726563 9.15175781 12 10 C10.36634462 14.11588016 7.39978457 16.90288394 4.32861328 19.9777832 C3.74953217 20.56518784 3.17045105 21.15259247 2.57382202 21.75779724 C0.66142057 23.69426102 -1.25852592 25.62301041 -3.1796875 27.55078125 C-4.51253884 28.89259779 -5.8453116 30.23449239 -7.17800903 31.57646179 C-9.9702592 34.38519145 -12.76686451 37.18950621 -15.56591797 39.99145508 C-19.15815968 43.58909667 -22.73394676 47.20263537 -26.30601311 50.82029438 C-29.05132849 53.59528384 -31.80776121 56.35901969 -34.56744766 59.11971092 C-35.89127417 60.44775457 -37.21096243 61.77993635 -38.52645493 63.11623573 C-40.36269019 64.97919949 -42.21392177 66.82584704 -44.06982422 68.66918945 C-44.8851059 69.50672256 -44.8851059 69.50672256 -45.71685791 70.36117554 C-47.25460815 71.86933899 -47.25460815 71.86933899 -50 74 C-53.77322428 73.89846175 -55.69349052 71.76820587 -58.3125 69.1875 C-59.03050781 68.50042969 -59.74851563 67.81335938 -60.48828125 67.10546875 C-62 65 -62 65 -61.74673557 63.04320908 C-60.50655531 59.64984246 -57.81777016 57.42903252 -55.28686523 54.94628906 C-54.6917514 54.35073715 -54.09663757 53.75518524 -53.48348999 53.1415863 C-51.51555224 51.17573781 -49.53720323 49.22072727 -47.55859375 47.265625 C-46.19173522 45.90436191 -44.82553774 44.54243477 -43.4599762 43.17987061 C-39.86458498 39.59593213 -36.26027557 36.02109399 -32.65405273 32.44805908 C-28.97554208 28.80023982 -25.30551238 25.14391017 -21.63476562 21.48828125 C-14.43146526 14.31715264 -7.21871743 7.15560667 0 0 Z " fill="#BFC6D0" transform="translate(121,219)"/>
<path d="M0 0 C3.41059403 1.60535287 5.61792484 3.40518901 8.25 6.125 C8.95640625 6.84945312 9.6628125 7.57390625 10.390625 8.3203125 C11.18726563 9.15175781 11.18726563 9.15175781 12 10 C10.36634462 14.11588016 7.39978457 16.90288394 4.32861328 19.9777832 C3.74953217 20.56518784 3.17045105 21.15259247 2.57382202 21.75779724 C0.66142057 23.69426102 -1.25852592 25.62301041 -3.1796875 27.55078125 C-4.51253884 28.89259779 -5.8453116 30.23449239 -7.17800903 31.57646179 C-9.9702592 34.38519145 -12.76686451 37.18950621 -15.56591797 39.99145508 C-19.15815968 43.58909667 -22.73394676 47.20263537 -26.30601311 50.82029438 C-29.05132849 53.59528384 -31.80776121 56.35901969 -34.56744766 59.11971092 C-35.89127417 60.44775457 -37.21096243 61.77993635 -38.52645493 63.11623573 C-40.36269019 64.97919949 -42.21392177 66.82584704 -44.06982422 68.66918945 C-44.8851059 69.50672256 -44.8851059 69.50672256 -45.71685791 70.36117554 C-47.25460815 71.86933899 -47.25460815 71.86933899 -50 74 C-53.77322428 73.89846175 -55.69349052 71.76820587 -58.3125 69.1875 C-59.03050781 68.50042969 -59.74851563 67.81335938 -60.48828125 67.10546875 C-62 65 -62 65 -61.74673557 63.04320908 C-60.50655531 59.64984246 -57.81777016 57.42903252 -55.28686523 54.94628906 C-54.6917514 54.35073715 -54.09663757 53.75518524 -53.48348999 53.1415863 C-51.51555224 51.17573781 -49.53720323 49.22072727 -47.55859375 47.265625 C-46.19173522 45.90436191 -44.82553774 44.54243477 -43.4599762 43.17987061 C-39.86458498 39.59593213 -36.26027557 36.02109399 -32.65405273 32.44805908 C-28.97554208 28.80023982 -25.30551238 25.14391017 -21.63476562 21.48828125 C-14.43146526 14.31715264 -7.21871743 7.15560667 0 0 Z " fill="#BFC6D0" transform="translate(121,27)"/>
<path d="M0 0 C22.44 0 44.88 0 68 0 C68 5.28 68 10.56 68 16 C40.61 16 13.22 16 -15 16 C-10 11 -10 11 -7.578125 8.61328125 C-6.80984375 7.85402344 -6.0415625 7.09476562 -5.25 6.3125 C-4.08210937 5.16201172 -4.08210937 5.16201172 -2.890625 3.98828125 C-0.94769385 2.1389301 -0.94769385 2.1389301 0 0 Z " fill="#C7E2FB" transform="translate(220,264)"/>
<path d="M0 0 C10.56 0 21.12 0 32 0 C32 5.28 32 10.56 32 16 C21.44 16 10.88 16 0 16 C0 10.72 0 5.44 0 0 Z " fill="#E1C9B1" transform="translate(440,456)"/>
<path d="M0 0 C10.56 0 21.12 0 32 0 C32 5.28 32 10.56 32 16 C21.44 16 10.88 16 0 16 C0 10.72 0 5.44 0 0 Z " fill="#E1C9B1" transform="translate(264,456)"/>
<path d="M0 0 C10.56 0 21.12 0 32 0 C32 5.28 32 10.56 32 16 C21.44 16 10.88 16 0 16 C0 10.72 0 5.44 0 0 Z " fill="#E1C9B1" transform="translate(440,424)"/>
<path d="M0 0 C10.56 0 21.12 0 32 0 C32 5.28 32 10.56 32 16 C21.44 16 10.88 16 0 16 C0 10.72 0 5.44 0 0 Z " fill="#E1C9B1" transform="translate(264,424)"/>
<path d="M0 0 C10.56 0 21.12 0 32 0 C32 5.28 32 10.56 32 16 C21.44 16 10.88 16 0 16 C0 10.72 0 5.44 0 0 Z " fill="#E1C9B1" transform="translate(392,312)"/>
</svg>
